<?xml version="1.0" encoding="UTF-8" ?>
<!DOCTYPE svg PUBLIC "-//W3C//DTD SVG 1.1//EN" "http://www.w3.org/Graphics/SVG/1.1/DTD/svg11.dtd">
<svg width="1284pt" height="210pt" viewBox="0 0 1284 210" version="1.1" xmlns="http://www.w3.org/2000/svg">
<g id="#53ff9dff">
</g>
<g id="#ffffffff">
<path fill="#ffffff" opacity="1.00" d=" M 581.87 14.76 C 591.35 13.10 601.05 13.48 610.57 14.56 C 622.01 16.16 632.96 19.94 644.02 23.13 C 658.54 27.62 673.10 32.07 687.26 37.61 C 689.56 38.48 691.90 39.34 693.98 40.70 C 680.46 36.92 667.34 31.82 653.88 27.84 C 639.97 23.80 625.96 19.83 611.61 17.68 C 599.42 15.75 587.12 17.53 574.89 17.65 C 577.02 16.27 579.36 15.20 581.87 14.76 Z" />
<path fill="#ffffff" opacity="1.00" d=" M 569.22 42.70 C 586.63 40.38 604.52 39.71 621.81 43.34 C 633.61 45.94 645.26 49.29 656.62 53.45 C 689.53 65.67 720.70 82.02 751.71 98.35 C 786.06 116.54 820.02 135.60 855.57 151.39 C 872.45 158.33 889.73 165.35 908.06 167.03 C 918.81 168.26 929.44 165.44 939.74 162.71 C 951.42 159.28 963.24 155.88 973.94 149.94 C 991.50 140.33 1008.62 129.72 1027.32 122.38 C 1038.13 117.94 1049.50 115.09 1060.96 112.89 C 1083.24 108.57 1105.92 105.12 1128.68 106.49 C 1150.80 108.41 1172.62 113.28 1193.56 120.63 C 1205.34 124.84 1216.88 129.69 1228.35 134.68 C 1246.15 142.26 1264.48 149.58 1284.00 150.90 L 1284.00 162.09 C 1272.42 161.63 1260.80 160.04 1249.86 156.10 C 1243.43 153.67 1237.05 151.09 1231.02 147.80 C 1222.97 143.56 1214.89 139.05 1205.94 137.06 C 1202.53 136.46 1198.48 135.99 1195.66 138.42 C 1200.73 140.42 1206.08 141.71 1211.05 143.99 C 1218.50 147.35 1225.28 152.02 1232.82 155.20 C 1240.74 158.72 1248.94 161.57 1257.32 163.79 C 1266.05 165.88 1275.01 166.93 1284.00 166.80 L 1284.00 210.00 L 0.00 210.00 L 0.00 116.55 C 17.31 116.16 34.73 115.89 51.92 118.37 C 52.27 118.39 52.96 118.45 53.30 118.47 C 67.53 120.80 81.65 123.86 95.60 127.52 C 110.75 131.09 125.05 137.32 139.59 142.74 C 166.24 153.75 192.99 164.62 220.44 173.47 C 246.48 181.21 273.92 187.44 301.17 183.23 C 313.98 181.45 325.47 175.05 336.18 168.15 C 362.77 152.12 389.57 136.23 414.12 117.14 C 441.43 95.47 470.62 75.80 502.54 61.56 C 523.36 52.51 545.30 45.76 567.84 42.82 C 568.19 42.79 568.88 42.73 569.22 42.70 M 592.88 61.32 C 591.80 61.47 590.84 61.95 589.89 62.42 C 597.25 63.51 604.68 64.04 612.10 64.55 C 620.40 64.88 628.78 64.62 636.99 66.12 C 652.67 69.23 667.89 74.34 682.66 80.41 C 692.56 84.36 702.10 89.23 712.11 92.88 C 703.57 87.44 694.38 83.07 685.28 78.66 C 667.25 70.56 648.83 62.17 628.98 59.96 C 616.95 59.47 604.78 59.15 592.88 61.32 M 566.00 92.00 C 555.46 93.06 545.20 95.85 535.06 98.78 C 527.42 100.85 520.40 104.60 513.04 107.43 C 501.84 111.86 491.50 118.11 481.16 124.20 C 460.78 136.45 440.65 149.19 421.12 162.73 C 448.38 148.53 474.99 133.04 502.67 119.61 C 521.75 109.94 542.10 102.59 563.14 98.60 C 575.64 96.57 588.30 95.54 600.95 95.17 C 603.26 94.79 606.04 95.35 607.99 93.79 C 594.26 90.47 579.97 90.64 566.00 92.00 M 1153.57 124.58 C 1153.59 126.18 1153.63 127.78 1153.67 129.38 C 1158.73 130.03 1163.86 129.15 1168.93 129.79 C 1172.59 130.25 1176.19 131.15 1179.85 131.68 C 1172.01 126.85 1162.97 123.09 1153.57 124.58 M 38.27 137.03 C 37.80 139.61 39.20 142.29 41.13 143.95 C 43.30 145.80 46.38 145.24 48.99 145.08 C 54.81 144.39 60.72 143.21 66.54 144.58 C 73.63 145.71 80.04 149.22 86.99 150.81 C 79.70 146.15 72.32 141.34 63.95 138.83 C 57.73 137.12 51.48 135.15 45.00 134.70 C 42.65 134.58 39.43 134.52 38.27 137.03 M 398.53 145.49 C 384.66 155.93 370.23 165.70 354.81 173.71 C 353.49 174.46 351.84 174.93 351.07 176.36 C 358.77 175.83 365.66 171.84 372.36 168.33 C 385.74 160.61 397.95 150.69 408.02 138.96 C 404.54 140.64 401.67 143.29 398.53 145.49 M 1017.16 142.20 C 1012.16 145.39 1007.47 149.05 1003.02 152.96 C 1006.32 152.46 1009.03 150.39 1012.01 149.04 C 1015.45 147.29 1019.21 146.29 1022.68 144.61 C 1024.70 144.02 1023.87 141.54 1024.12 139.98 C 1021.73 140.44 1019.21 140.80 1017.16 142.20 M 928.10 182.25 C 918.22 184.14 908.12 184.03 898.11 184.42 C 900.22 188.92 905.77 188.90 910.02 189.30 C 921.11 189.34 932.21 187.29 942.63 183.50 C 955.61 178.86 967.32 171.41 978.56 163.56 C 980.39 162.09 982.65 161.00 983.93 158.95 C 966.80 169.70 948.13 178.59 928.10 182.25 M 133.11 162.64 C 135.38 163.36 137.74 163.74 140.08 164.14 C 154.26 166.80 167.49 172.73 180.72 178.24 C 197.52 185.10 214.43 191.87 231.98 196.56 C 256.38 201.85 281.87 203.38 306.51 198.72 C 308.01 198.19 310.40 198.52 310.81 196.48 C 284.06 198.32 256.82 197.25 230.82 190.25 C 214.01 185.11 197.70 178.50 181.06 172.84 C 165.69 167.17 149.66 162.29 133.11 162.64 M 843.89 175.91 C 844.46 179.98 847.78 182.78 850.99 184.96 C 857.12 189.01 863.97 191.86 870.99 193.98 C 874.53 195.01 878.10 196.22 881.85 196.07 C 874.92 191.59 866.66 189.65 859.63 185.31 C 854.21 182.46 849.85 177.72 843.89 175.91 M 989.23 179.20 C 982.32 182.70 975.78 186.98 968.48 189.65 C 964.77 191.09 960.85 191.87 957.09 193.15 C 955.73 193.60 953.79 194.48 954.40 196.32 C 962.40 197.36 970.07 193.92 976.60 189.63 C 981.94 186.04 987.81 183.05 992.21 178.25 C 991.17 178.42 990.14 178.69 989.23 179.20 Z" />
<path fill="#ffffff" opacity="1.00" d=" M 1051.88 91.78 C 1061.02 81.63 1073.37 73.90 1087.04 71.95 C 1100.96 70.75 1114.49 75.09 1128.04 77.55 C 1131.75 78.26 1135.57 77.88 1139.32 78.40 C 1124.49 83.83 1109.04 78.43 1093.98 77.50 C 1082.22 76.61 1070.80 80.91 1060.95 87.01 C 1057.87 88.48 1055.25 91.09 1051.88 91.78 Z" />
<path fill="#ffffff" opacity="1.00" d=" M 0.00 84.92 C 17.16 80.95 34.94 84.31 51.48 89.40 C 67.33 93.92 83.05 98.92 98.61 104.35 C 103.16 106.05 107.80 107.59 112.14 109.81 C 94.78 104.68 77.84 98.17 60.30 93.64 C 49.61 90.90 38.91 88.01 27.91 86.84 C 18.63 85.71 9.28 86.55 0.00 87.13 L 0.00 84.92 Z" />
<path fill="#ffffff" opacity="1.00" d=" M 386.93 113.82 C 391.34 111.03 395.54 107.79 400.40 105.76 C 397.47 109.07 393.75 111.52 390.42 114.39 C 375.24 126.62 359.68 139.43 340.96 145.74 C 346.68 141.48 352.75 137.72 358.64 133.71 C 368.20 127.27 377.19 120.01 386.93 113.82 Z" />
<path fill="#ffffff" opacity="1.00" d=" M 1216.92 106.06 C 1226.55 109.37 1235.28 114.90 1245.05 117.91 C 1253.15 120.37 1261.37 123.20 1269.87 123.66 C 1269.94 124.16 1270.08 125.16 1270.16 125.67 C 1256.43 124.80 1241.89 123.73 1230.01 116.07 C 1225.45 113.03 1220.69 110.07 1216.92 106.06 Z" />
<path fill="#ffffff" opacity="1.00" d=" M 307.91 127.28 C 312.77 127.01 317.34 125.17 322.09 124.30 C 319.58 127.56 315.56 129.15 312.01 131.00 C 307.45 133.39 302.20 132.81 297.26 132.49 C 297.18 130.80 297.14 129.10 297.15 127.42 C 300.74 127.37 304.33 127.46 307.91 127.28 Z" />
<path fill="#ffffff" opacity="1.00" d=" M 1271.23 125.20 C 1272.47 124.21 1273.20 124.41 1273.43 125.81 C 1272.28 126.63 1271.55 126.43 1271.23 125.20 Z" />
<path fill="#ffffff" opacity="1.00" d=" M 949.84 139.38 C 958.15 138.33 965.37 133.88 972.83 130.41 C 971.61 134.59 967.41 136.68 964.29 139.30 C 957.72 144.55 948.07 146.71 940.36 142.76 C 942.65 140.02 946.63 140.24 949.84 139.38 Z" />
<path fill="#ffffff" opacity="1.00" d=" M 208.60 153.89 C 226.98 159.03 245.86 162.94 265.04 162.80 C 281.90 162.99 298.57 159.98 315.36 159.10 C 312.78 160.67 309.81 161.38 306.99 162.37 C 285.83 169.31 262.85 171.16 241.01 166.44 C 229.70 164.22 217.37 161.96 208.60 153.89 Z" />
</g>
</svg>
